<svg xmlns='http://www.w3.org/2000/svg'>
  <defs> 
    <symbol id="home" viewBox="0 0 32 32">
      <path d="M32 18.451 16 6.031 0 18.451v-5.064L16 .967l16 12.42zM28 18v12h-8v-8h-8v8H4V18l12-9z"/>
    </symbol>
    <symbol id="contact" viewBox="0 0 32 32">
      <path d="M29 4H3C1.35 4 0 5.35 0 7v20c0 1.65 1.35 3 3 3h26c1.65 0 3-1.35 3-3V7c0-1.65-1.35-3-3-3zM12.461 17.199 4 23.789V8.113l8.461 9.086zM5.512 8h20.976L16 15.875 5.512 8zm7.278 9.553L16 21l3.21-3.447L25.79 26H6.211l6.58-8.447zm6.749-.354L28 8.113v15.676l-8.461-6.59z"/>
    </symbol>
    <symbol id="about" viewBox="0 0 32 32">
      <path d="M18 22.082v-1.649c2.203-1.241 4-4.337 4-7.432 0-4.971 0-9-6-9s-6 4.029-6 9c0 3.096 1.797 6.191 4 7.432v1.649C7.216 22.637 2 25.97 2 30h28c0-4.03-5.216-7.364-12-7.918z"/>
    </symbol>
    <symbol id="menu" viewBox="0 0 32 32">
      <path d="M2 6h28v6H2zm0 8h28v6H2zm0 8h28v6H2z"/>
    </symbol>
    <symbol id="cross" viewBox="0 0 32 32">
      <path d="M31.708 25.708 22 16l9.708-9.708a1 1 0 0 0 .229-.357c.133-.356.057-.771-.229-1.057L27.122.292c-.286-.286-.702-.361-1.057-.229a.9973.9973 0 0 0-.357.228L16 9.999 6.292.291a.9973.9973 0 0 0-.357-.228C5.579-.07 5.164.006 4.878.292L.292 4.878c-.286.286-.361.702-.229 1.057a1 1 0 0 0 .229.357L10 16 .292 25.708c-.104.105-.18.227-.229.357a.9987.9987 0 0 0 .229 1.057l4.586 4.586c.286.286.702.361 1.057.229a1 1 0 0 0 .357-.229L16 22l9.708 9.708a1 1 0 0 0 .357.229c.356.133.771.057 1.057-.229l4.586-4.586a.9987.9987 0 0 0 .229-1.057 1 1 0 0 0-.229-.357z"/>
    </symbol>
  </defs>
</svg>